<?xml version="1.0" standalone="no"?>
<!DOCTYPE svg PUBLIC "-//W3C//DTD SVG 20010904//EN"
 "http://www.w3.org/TR/2001/REC-SVG-20010904/DTD/svg10.dtd">
<svg version="1.0" xmlns="http://www.w3.org/2000/svg"
 width="300.000000pt" height="300.000000pt" viewBox="0 0 300.000000 300.000000"
 preserveAspectRatio="xMidYMid meet">
<metadata>
Created by potrace 1.10, written by Peter Selinger 2001-2011
</metadata>
<g transform="translate(0.000000,300.000000) scale(0.050000,-0.050000)"
fill="#000000" stroke="none">
<path d="M2464 5121 c-146 -70 -294 -213 -389 -375 -79 -136 -75 -134 -335
-174 -115 -18 -267 -51 -337 -72 -173 -55 -440 -54 -560 0 -269 123 -501 -120
-346 -361 114 -175 264 -279 407 -279 232 -1 -11 -120 -270 -132 -167 -8 -176
-11 -268 -89 -155 -133 -156 -240 -4 -394 108 -109 183 -132 395 -120 167 9
235 26 753 196 220 72 221 74 -101 -341 -216 -279 -357 -427 -626 -657 -255
-218 -245 -462 23 -562 138 -51 575 234 783 510 57 76 279 327 435 493 159
169 211 -25 99 -371 -33 -101 -70 -228 -82 -283 -13 -55 -59 -177 -102 -271
-143 -313 -174 -713 -67 -862 34 -48 73 -85 87 -82 13 4 19 -3 12 -14 -7 -10
6 -28 27 -40 156 -83 350 113 413 419 16 75 45 175 66 223 20 48 48 150 61
227 23 131 181 510 213 510 8 0 69 -52 137 -115 216 -201 465 -288 628 -219
41 17 107 37 148 43 163 27 382 307 466 596 18 64 44 115 59 115 14 0 69 -52
121 -115 51 -63 140 -165 197 -225 57 -61 155 -174 219 -252 137 -166 461
-459 580 -523 124 -67 181 -59 286 40 190 179 149 304 -232 711 -146 156 -280
303 -296 326 -34 49 -39 51 186 -80 408 -239 691 212 303 482 -112 78 -394
362 -513 516 -63 83 -139 172 -168 198 -69 64 -66 80 27 171 90 88 170 254
153 321 -24 94 -187 216 -269 199 -164 -32 -328 -18 -448 38 -122 57 -131 73
-85 153 119 208 -111 484 -310 370 -30 -17 -107 -29 -192 -29 -112 -1 -162
-12 -236 -51 -123 -66 -117 -67 -258 60 -257 233 -536 293 -790 171z m430
-193 c194 -66 387 -268 463 -488 40 -114 51 -109 70 26 26 184 157 267 385
243 129 -14 132 -13 189 48 100 110 143 29 58 -109 -48 -77 -68 -85 -234 -85
-152 -1 -165 -8 -165 -89 0 -35 -41 -163 -91 -284 -50 -121 -108 -263 -130
-317 -53 -128 -2 -125 96 7 141 190 235 287 343 356 162 105 148 105 437 -27
58 -27 123 -49 143 -49 20 0 72 -12 115 -28 74 -26 82 -25 134 20 107 93 205
88 152 -7 -92 -165 -209 -187 -519 -98 -259 73 -316 79 -331 30 -7 -22 -102
-133 -211 -246 -210 -218 -232 -260 -143 -277 45 -8 72 6 149 78 381 356 744
271 1080 -254 38 -59 111 -142 161 -183 50 -41 124 -119 164 -173 44 -61 106
-115 161 -142 87 -42 210 -161 210 -203 0 -40 -159 -3 -244 56 -44 31 -111 76
-149 99 -91 56 -198 159 -269 261 -31 46 -87 102 -124 125 -37 22 -111 96
-165 164 -86 107 -296 278 -342 278 -9 0 -56 -40 -106 -89 -100 -97 -250 -179
-366 -200 -49 -8 -75 -24 -75 -44 0 -22 10 -27 35 -16 100 42 264 35 330 -16
36 -27 84 -55 108 -63 23 -7 85 -60 137 -118 53 -57 142 -153 199 -214 58 -60
150 -179 206 -264 56 -85 136 -184 178 -220 117 -101 186 -178 249 -276 32
-49 92 -109 133 -132 93 -53 205 -195 205 -260 0 -98 -130 -41 -323 144 -73
71 -141 128 -152 128 -10 0 -66 61 -125 135 -60 74 -163 194 -230 265 -67 72
-173 194 -235 272 -62 79 -158 176 -214 217 -55 41 -108 86 -116 100 -12 21
-305 57 -305 38 0 -2 29 -51 65 -109 129 -207 10 -668 -196 -762 -122 -55
-134 21 -59 353 l50 220 -95 96 -95 97 -16 -81 c-19 -94 -70 -130 -162 -115
-123 20 -168 -2 -182 -89 -14 -77 -12 -79 167 -254 293 -286 251 -404 -87
-246 -276 129 -441 393 -351 562 16 30 7 41 -64 68 -90 36 -114 23 -115 -60 0
-65 -126 -415 -229 -636 -59 -128 -100 -252 -120 -364 -16 -93 -47 -198 -68
-233 -21 -35 -48 -131 -59 -213 -33 -223 -137 -336 -182 -197 -15 47 -15 103
0 196 12 72 28 180 35 242 9 71 42 166 90 258 42 80 89 206 104 280 16 74 60
225 99 336 63 184 70 223 70 421 l0 218 -101 10 c-80 7 -116 23 -170 76 -38
36 -72 62 -76 58 -4 -5 -23 -38 -40 -73 -18 -35 -65 -88 -104 -118 -39 -30
-84 -78 -98 -107 -15 -29 -88 -113 -162 -186 -73 -74 -159 -174 -189 -222 -30
-48 -98 -122 -151 -165 -52 -43 -145 -122 -205 -175 -216 -192 -491 -223 -299
-34 36 36 100 82 142 104 81 42 430 393 511 515 27 39 94 126 150 192 56 66
137 171 179 234 146 218 352 288 561 193 29 -13 59 -17 67 -9 21 22 -54 72
-108 72 -96 0 -269 84 -379 185 -109 100 -113 102 -175 77 -35 -14 -96 -33
-137 -41 -41 -8 -96 -29 -122 -46 -26 -18 -92 -38 -146 -46 -54 -8 -147 -34
-208 -59 -291 -119 -585 -149 -687 -69 -102 81 -73 103 132 98 213 -5 458 54
669 160 68 35 144 67 170 71 25 5 96 34 156 65 150 75 338 75 505 -1 138 -62
139 -59 27 73 -48 57 -111 151 -140 209 -63 125 -87 138 -199 104 -226 -68
-907 -98 -1012 -45 -72 36 -199 194 -175 218 20 20 194 -53 218 -93 25 -39
505 -36 582 4 42 21 485 116 546 116 23 0 84 -32 135 -71 l93 -71 1 96 c5 262
173 530 370 588 49 15 89 32 89 39 0 21 154 1 254 -33z"/>
</g>
</svg>
