<?xml version="1.0" encoding="UTF-8"?>
<svg version="1.1" xmlns="http://www.w3.org/2000/svg" width="500" height="500">
<path d="M0 0 C0.33 0.66 0.66 1.32 1 2 C1.825 1.835 2.65 1.67 3.5 1.5 C9.43624748 0.65196465 14.43077165 0.44116535 20 3 C21.65919896 3.36871088 23.3247643 3.71281674 25 4 C25 4.66 25 5.32 25 6 C27.31 6.66 29.62 7.32 32 8 C32 8.66 32 9.32 32 10 C32.763125 10.28875 33.52625 10.5775 34.3125 10.875 C37 12 37 12 40 14 C40 14.66 40 15.32 40 16 C40.61875 16.2475 41.2375 16.495 41.875 16.75 C44.38710296 18.22770762 44.76107344 19.43955177 46 22 C46.99 22.33 47.98 22.66 49 23 C49.6875 25.0625 49.6875 25.0625 50 27 C50.66 27 51.32 27 52 27 C59 39.26335878 59 39.26335878 59 43 C59.66 43 60.32 43 61 43 C61.33 44.65 61.66 46.3 62 48 C62.33 48 62.66 48 63 48 C63.20302734 47.00033203 63.20302734 47.00033203 63.41015625 45.98046875 C65.48095196 37.1144871 69.05800683 29.44924403 76 23.375 C82.09984077 20.57923965 89.77103057 20.09228443 96.34765625 21.50390625 C99.38873464 22.07270883 102.22095444 22.09647303 105.3125 22.0625 C106.91544922 22.04896484 106.91544922 22.04896484 108.55078125 22.03515625 C109.76314453 22.01775391 109.76314453 22.01775391 111 22 C111.28101563 21.39671875 111.56203125 20.7934375 111.8515625 20.171875 C113.44273905 17.16271119 115.42516078 15.20700505 118 13 C119.32 13 120.64 13 122 13 C122.76330313 20.88746564 120.90792503 25.76378334 116 32 C113.54611467 34.44319302 112.42942001 34.96881918 108.93359375 35.22265625 C107.77988281 35.16980469 106.62617188 35.11695313 105.4375 35.0625 C99.02962523 34.90817422 93.23556677 35.5747276 87 37 C86.81566406 38.04414062 86.63132812 39.08828125 86.44140625 40.1640625 C84.13754736 52.19686766 80.03248345 62.96855128 75.19775391 74.19238281 C73.2102828 78.85115121 71.32205278 83.54886948 69.4375 88.25 C69.09106445 89.10190918 68.74462891 89.95381836 68.38769531 90.83154297 C67.91541504 92.00547607 67.91541504 92.00547607 67.43359375 93.203125 C67.15572021 93.89051758 66.87784668 94.57791016 66.59155273 95.28613281 C65.89124376 97.01291161 65.89124376 97.01291161 66 99 C71.04047681 95.34565431 74.2162005 91.10647983 77.796875 86.04296875 C85.60368123 75.26016369 94.03878704 66.50104171 105.0625 59.0625 C105.9292334 58.4588562 105.9292334 58.4588562 106.81347656 57.84301758 C111.04934981 55.08657652 114.00470924 54.44496769 119 55 C122.2890625 55.8828125 122.2890625 55.8828125 125.625 57.125 C127.45998047 57.80755859 127.45998047 57.80755859 129.33203125 58.50390625 C132.74158469 59.89459738 136.011276 61.43466935 139.3125 63.0625 C146.91017437 66.68399589 154.78808107 68.37429016 163 70 C164.08796875 70.25652344 165.1759375 70.51304687 166.296875 70.77734375 C168.96644751 71.26604113 168.96644751 71.26604113 170.80078125 69.890625 C171.29964844 69.34921875 171.79851562 68.8078125 172.3125 68.25 C176.02022357 64.69952364 179.94309419 62.91662855 185 62 C185.66 62.33 186.32 62.66 187 63 C186.6064493 68.37852629 184.77171257 72.21192425 181 76 C172.67520387 82.04238449 168.10791323 84.54681178 158 83 C154.24936663 82.18117163 150.56689443 81.17470646 146.875 80.125 C145.93785156 79.86847656 145.00070312 79.61195313 144.03515625 79.34765625 C139.85773997 78.18499074 135.78457935 76.96020479 131.7578125 75.34765625 C128.01697831 74.00608889 124.95145854 73.51830513 121 73.3125 C119.865625 73.24675781 118.73125 73.18101562 117.5625 73.11328125 C116.2940625 73.05720703 116.2940625 73.05720703 115 73 C114.74863281 73.721875 114.49726563 74.44375 114.23828125 75.1875 C111.19806915 82.09271361 105.35090281 87.79773338 100 93 C99.401875 93.78375 98.80375 94.5675 98.1875 95.375 C96.26607405 97.68071113 94.39957123 99.44139865 92.125 101.375 C86.9496923 105.81649541 82.02897966 110.30436713 80 117 C83.35620771 117.65820773 86.57455896 118.10090446 90 118 C92.4121759 116.35946593 92.4121759 116.35946593 93.58203125 114.74609375 C95.56470953 112.30461388 97.85486137 110.2938627 100.1875 108.1875 C101.04730469 107.39730469 101.90710938 106.60710937 102.79296875 105.79296875 C105 104 105 104 107 104 C107 103.34 107 102.68 107 102 C118.74096147 94.8533278 131.02644609 91.17651469 144.875 93.5625 C155.03827562 96.55960963 161.37040043 103.18559107 168.1640625 110.87109375 C171.00524416 114.06718524 174.10225491 116.82647652 177.375 119.57421875 C179.57452231 121.50408809 181.34752323 123.59013804 183 126 C183 126.66 183 127.32 183 128 C183.66 128 184.32 128 185 128 C185.56267578 129.10408203 185.56267578 129.10408203 186.13671875 130.23046875 C190.79375801 139.1105159 196.06889327 144.18398713 203.98828125 150.23046875 C204.98408203 151.10638672 204.98408203 151.10638672 206 152 C206 152.66 206 153.32 206 154 C206.66 154 207.32 154 208 154 C208 154.66 208 155.32 208 156 C208.66 156 209.32 156 210 156 C211.02706321 157.51088638 212.04621004 159.02786742 213.02099609 160.57299805 C217.93613856 168.2796368 222.7575361 172.37876805 230.8984375 176.44921875 C233.56063827 177.78031914 235.78591464 179.02041137 238 181 C238 181.66 238 182.32 238 183 C238.66 183 239.32 183 240 183 C240 183.66 240 184.32 240 185 C240.66 185 241.32 185 242 185 C244.04169485 187.90548882 245 189.40142046 245 193 C239.10032319 194.70780118 234.4559864 193.44916517 229 191 C225.69076972 188.92963131 222.52824353 186.70000073 219.37890625 184.3984375 C216.08140646 182.00321957 212.649044 179.98476322 209.125 177.9375 C204.39366658 175.07815375 200.8594986 172.21749952 197.46484375 167.859375 C195.99972413 165.9187584 195.99972413 165.9187584 194.05078125 164.0859375 C191.83014836 161.82723662 190.06289854 159.47038893 188.25 156.875 C187.63640625 156.00617188 187.0228125 155.13734375 186.390625 154.2421875 C185 152 185 152 185 150 C184.34 149.79375 183.68 149.5875 183 149.375 C175.56275131 145.96626102 170.73805778 140.83849812 165.859375 134.3671875 C164.03775696 131.94120183 164.03775696 131.94120183 161.765625 129.8203125 C160 128 160 128 160 126 C159.34 126 158.68 126 158 126 C157.16275391 124.91138672 157.16275391 124.91138672 156.30859375 123.80078125 C153.56742494 120.47520082 150.67248545 118.47369732 147.0625 116.1875 C146.45470703 115.78080078 145.84691406 115.37410156 145.22070312 114.95507812 C142.64209434 113.29998403 140.37058723 112.07499328 137.35546875 111.46484375 C134.0115129 112.22458165 132.57854283 113.89799303 130.25 116.375 C129.47140625 117.18710938 128.6928125 117.99921875 127.890625 118.8359375 C125.96899127 120.85228463 125.96899127 120.85228463 125 123 C123.25 124.11328125 123.25 124.11328125 121 125.3125 C118.5961781 126.59554466 116.21484872 127.86766275 113.89453125 129.296875 C107.33761917 133.28269022 100.38075454 135.12068981 93 137 C101.66828089 134.58326731 111.51421052 133.46069394 119.89453125 137.33984375 C122.12138797 138.77414989 124.12455821 140.12951969 126 142 C126 142.66 126 143.32 126 144 C126.81791016 144.185625 126.81791016 144.185625 127.65234375 144.375 C138.32490859 147.29399209 144.42492336 155.10277247 150.72631836 163.69482422 C152.92349026 166.83341179 152.92349026 166.83341179 156 169 C156 169.66 156 170.32 156 171 C156.59296875 171.27070313 157.1859375 171.54140625 157.796875 171.8203125 C165.74296009 176.07513111 170.30768045 184.660961 175 192 C181.52624707 203.43240243 181.52624707 203.43240243 191 212 C191 212.66 191 213.32 191 214 C191.8353125 214.37125 191.8353125 214.37125 192.6875 214.75 C202.43901012 220.02108655 211.14547851 231.29807998 215.4375 241.375 C217.3374258 244.56687534 219.3763899 245.27733062 222.68359375 246.76953125 C231.60229719 251.50712245 237.93582553 259.4192554 241 269 C240.64453125 271.35546875 240.64453125 271.35546875 240 273 C231.05970236 273.9933664 225.77093002 269.80971257 218.8125 264.625 C215.85267756 261.86249906 213.27792686 258.91922134 210.6484375 255.84765625 C208.11314161 253.00596204 205.22348271 250.86408466 202.125 248.67578125 C197.46048367 245.30990867 193.26365799 241.79658826 190 237 C190 236.34 190 235.68 190 235 C189.34 235 188.68 235 188 235 C186.39018828 233.09480998 184.90496732 231.19744338 183.4375 229.1875 C182.8197168 228.36668945 182.8197168 228.36668945 182.18945312 227.52929688 C180.33850981 225.03006899 178.99012572 222.97037715 178 220 C177.34 220 176.68 220 176 220 C174.66796875 218.64453125 174.66796875 218.64453125 173.1875 216.8125 C170.15367423 213.15578729 166.93249804 209.79620095 163.44921875 206.55859375 C158.75322685 202.07850952 154.98510201 197.11470275 151.15625 191.8828125 C149.33337382 189.4457063 147.45530275 187.14978706 145.4375 184.875 C143 182 143 182 143 180 C142.17628906 179.63648438 142.17628906 179.63648438 141.3359375 179.265625 C138.47374245 177.71487049 136.13776711 175.81933762 133.625 173.75 C132.70976562 173.00234375 131.79453125 172.2546875 130.8515625 171.484375 C128 169 128 169 126.69384766 167.37841797 C124.49758028 164.72201019 123.01530559 163.19814802 119.55810547 162.5234375 C116.72371896 162.41020358 113.95743482 162.47531849 111.125 162.625 C110.15046875 162.65207031 109.1759375 162.67914063 108.171875 162.70703125 C105.77894071 162.77741167 103.39064338 162.87578592 101 163 C101.72316406 164.16015625 101.72316406 164.16015625 102.4609375 165.34375 C109.51263106 176.97184876 111.79184218 186.88629549 108.74609375 200.30859375 C105.12279666 213.37902148 98.89890449 227.45913049 87 235 C83.5 235.9375 83.5 235.9375 81 236 C76.52645619 229.66929309 77.79622262 223.32804549 79 216 C80.2123324 210.06553062 81.56533347 204.16436111 83.00366211 198.28076172 C83.27315674 197.15428223 83.54265137 196.02780273 83.8203125 194.8671875 C84.07055176 193.85769043 84.32079102 192.84819336 84.57861328 191.80810547 C85.02743676 188.81716242 84.90291603 186.87608976 84 184 C82.23293225 181.92376631 80.53158013 180.10648978 78.5625 178.25 C78.05912109 177.75628906 77.55574219 177.26257813 77.03710938 176.75390625 C74.26250344 174.04735375 74.26250344 174.04735375 71 172 C70.814375 173.5778125 70.814375 173.5778125 70.625 175.1875 C70.08859218 178.45958771 69.36119965 181.00536076 68 184 C67.34 184 66.68 184 66 184 C66 184.66 66 185.32 66 186 C62.50698069 187.0878503 59.33033035 187.06849035 55.6875 187 C50.98518294 186.95763678 46.61761869 187.14090815 42 188 C40.22991271 195.86650303 40.22991271 195.86650303 42.46875 203.17578125 C44.56596885 204.93018548 46.74391195 206.45697605 49 208 C50.25785577 209.17843922 51.48871454 210.38651966 52.6875 211.625 C53.25855469 212.20507812 53.82960938 212.78515625 54.41796875 213.3828125 C54.94003906 213.91648437 55.46210938 214.45015625 56 215 C56.825 215.825 57.65 216.65 58.5 217.5 C59.325 218.325 60.15 219.15 61 220 C61.556875 220.51046875 62.11375 221.0209375 62.6875 221.546875 C67.03168427 225.62891022 71.20774145 230.19394087 73 236 C72.2425152 238.047746 71.54264836 239.45735164 70 241 C56.30562878 242.1411976 43.81661556 236.14715453 33.23828125 227.828125 C24.69458897 220.42103752 16.97591635 211.85644087 15.6875 200.1640625 C15.56875717 194.74642077 16.18707342 190.09885601 18 185 C14.04 184.01 10.08 183.02 6 182 C5.74347656 183.08152344 5.48695313 184.16304687 5.22265625 185.27734375 C0.14944955 205.94299863 -7.40854018 225.44879076 -16.51953125 244.65234375 C-21.18621521 254.63433504 -23.85626223 263.49990573 -25.33398438 274.43359375 C-26.39780732 281.41639632 -28.56133884 286.85554104 -32 293 C-33.65243643 295.95718253 -34.3369313 298.33639775 -34.7109375 301.703125 C-34.82179687 302.60160156 -34.93265625 303.50007813 -35.046875 304.42578125 C-35.26373086 306.29229065 -35.47477478 308.15948547 -35.6796875 310.02734375 C-36.59541136 317.3219168 -38.28200155 323.21405159 -43.5 328.5625 C-46 330 -46 330 -48.125 330.125 C-51.22644213 328.26413472 -51.82277452 326.4139539 -53 323 C-53.89030498 315.97380935 -52.6356675 309.27617221 -51.19970703 302.40136719 C-50.29677329 297.9849559 -49.76586443 293.664196 -49.43017578 289.1706543 C-48.65803977 279.33272077 -46.01728465 272.59956304 -41 264 C-36.49688853 256.19673592 -34.14582013 249.04255944 -32.46142578 240.27075195 C-31.46032165 235.07925339 -30.2766914 230.04345781 -28.6875 225 C-28.48608398 224.34660645 -28.28466797 223.69321289 -28.07714844 223.02001953 C-26.96520063 219.5492145 -25.69361738 216.2671802 -24.125 212.9765625 C-17.09721591 197.57431085 -17.72598362 180.63699214 -19 164 C-19.33 163.67 -19.66 163.34 -20 163 C-20.99 163.04125 -21.98 163.0825 -23 163.125 C-31.19721696 163.17518704 -37.00519694 159.66232214 -43.15234375 154.5234375 C-44.93055684 152.94140754 -44.93055684 152.94140754 -47 152 C-47.30550781 152.61746094 -47.61101562 153.23492187 -47.92578125 153.87109375 C-51.45558613 160.40371856 -55.43457316 164.15462101 -61.3046875 168.6171875 C-65.01103658 171.89381494 -67.2560387 175.62506653 -69.66015625 179.91015625 C-70.10230469 180.59980469 -70.54445313 181.28945313 -71 182 C-71.66 182 -72.32 182 -73 182 C-73.226875 182.53625 -73.45375 183.0725 -73.6875 183.625 C-76.85978485 189.36532496 -81.66551789 194.21077089 -87 198 C-87.66 198 -88.32 198 -89 198 C-89.25265625 198.53753906 -89.5053125 199.07507813 -89.765625 199.62890625 C-97.34559581 214.18916664 -109.18071605 225.18163384 -122.6953125 234.21875 C-125.27654794 236.21373875 -127.00024013 238.43350657 -129 241 C-136.66478781 247.98848301 -143.57993218 250.39921389 -153.875 250.10546875 C-154.57625 250.07066406 -155.2775 250.03585937 -156 250 C-155.71900088 245.31668139 -155.02918986 242.05918206 -151.78125 238.546875 C-145.99275987 233.52002831 -139.55236467 229.51047293 -132 228 C-132 227.34 -132 226.68 -132 226 C-131.34 226 -130.68 226 -130 226 C-129.61908203 224.88044922 -129.61908203 224.88044922 -129.23046875 223.73828125 C-127.92300928 220.8286651 -126.62790778 219.348244 -124.3125 217.1875 C-121.59311713 214.58507984 -119.08172647 211.96564418 -116.6875 209.0625 C-113.91485094 205.79496164 -110.91386227 203.33484796 -107.5 200.75 C-102.50983158 196.78362972 -99.85564394 192.8687629 -96.89453125 187.28515625 C-94.62009332 183.34123398 -91.99652592 179.82450368 -89.1875 176.25 C-88.70667969 175.62907471 -88.22585937 175.00814941 -87.73046875 174.3684082 C-86.53810496 172.87012012 -85.27463902 171.42894855 -84 170 C-83.34 170 -82.68 170 -82 170 C-81.773125 169.46375 -81.54625 168.9275 -81.3125 168.375 C-79.92943868 165.87231762 -78.20968882 163.9168993 -76.34765625 161.76171875 C-74.85233696 159.80696802 -73.76255621 157.80625465 -72.625 155.625 C-67.87333997 146.85723103 -61.39652785 141.2395395 -53 136 C-52.31808594 135.56300781 -51.63617188 135.12601563 -50.93359375 134.67578125 C-42.14775552 129.61726833 -33.42486068 132.14807756 -24.18164062 134.57617188 C-22.45230158 135.04297713 -20.72582506 135.52036624 -19 136 C-19 135.34 -19 134.68 -19 134 C-20.2375 133.9175 -21.475 133.835 -22.75 133.75 C-32.54032343 132.64340143 -41.41287264 128.64340961 -50 124 C-50.886875 123.566875 -51.77375 123.13375 -52.6875 122.6875 C-55.70385881 120.4863733 -57.8929967 117.81639201 -60.25390625 114.9375 C-62.07601098 112.91565672 -63.65310881 111.38699948 -66 110 C-68.37441738 109.8502656 -68.37441738 109.8502656 -70.75 110.3125 C-71.54921875 110.43238281 -72.3484375 110.55226563 -73.171875 110.67578125 C-74.07679688 110.83626953 -74.07679688 110.83626953 -75 111 C-75 111.66 -75 112.32 -75 113 C-76.09699219 113.19335938 -77.19398438 113.38671875 -78.32421875 113.5859375 C-79.77869582 113.84868175 -81.23312017 114.11171801 -82.6875 114.375 C-83.40873047 114.50132812 -84.12996094 114.62765625 -84.87304688 114.7578125 C-88.799252 115.47492759 -92.33928805 116.339322 -96 118 C-96 118.66 -96 119.32 -96 120 C-98.9986426 120.67289801 -101.9990134 121.33764303 -105 122 C-105.825 122.185625 -106.65 122.37125 -107.5 122.5625 C-110 123 -110 123 -111.984375 123.10546875 C-116.33365196 123.38292263 -119.37871443 124.01119581 -123.09765625 126.34375 C-128.24293386 129.31213853 -133.45690209 130.79882068 -139.1875 132.25 C-140.14591797 132.50523437 -141.10433594 132.76046875 -142.09179688 133.0234375 C-150.21731267 135.1572979 -157.60395184 136.24803687 -166 136 C-166.84175781 135.99484375 -167.68351562 135.9896875 -168.55078125 135.984375 C-174.50606589 135.7250469 -178.42371562 134.02593091 -183.3828125 130.765625 C-185 129 -185 129 -185.2421875 126.296875 C-185.16226563 125.53890625 -185.08234375 124.7809375 -185 124 C-181.49017889 122.83005963 -178.70059949 122.8674168 -175 122.875 C-174.33009033 122.8740332 -173.66018066 122.87306641 -172.9699707 122.87207031 C-168.97721343 122.8930522 -165.13708746 123.19626671 -161.1875 123.75 C-156.22412495 124.2786435 -152.94308893 123.16765154 -148.453125 121.11328125 C-143.54263893 118.88479633 -138.33074472 117.44952276 -133.04296875 116.4296875 C-122.52873913 114.38129258 -113.27819737 109.91724146 -104.2265625 104.26953125 C-102 103 -102 103 -98.875 102.6875 C-95.05253685 102.00932105 -93.05661798 101.04208478 -89.75 99.125 C-77.88484505 92.39116036 -66.31144949 91.30771923 -53.1875 94.875 C-50.78761989 95.56949907 -48.39160214 96.27750939 -46 97 C-43.66850829 97.67327713 -41.3342936 98.3364748 -39 99 C-39.5053125 98.37351562 -40.010625 97.74703125 -40.53125 97.1015625 C-41.1809375 96.28429687 -41.830625 95.46703125 -42.5 94.625 C-43.1496875 93.81289062 -43.799375 93.00078125 -44.46875 92.1640625 C-46 90 -46 90 -46 88 C-46.66 88 -47.32 88 -48 88 C-48.40992188 87.24074219 -48.81984375 86.48148437 -49.2421875 85.69921875 C-49.78101563 84.70535156 -50.31984375 83.71148437 -50.875 82.6875 C-51.40867188 81.70136719 -51.94234375 80.71523437 -52.4921875 79.69921875 C-54.00722126 76.90413542 -54.00722126 76.90413542 -56 74 C-56 73.01 -56 72.02 -56 71 C-56.66 70.67 -57.32 70.34 -58 70 C-58.625 67.9375 -58.625 67.9375 -59 66 C-63.12017409 65.73701016 -66.18461116 65.92986914 -70.0625 67.375 C-81.7101163 71.55668729 -94.97948884 71.58570775 -107.23144531 72.43261719 C-109.99602941 72.62472409 -112.75969194 72.82747153 -115.5234375 73.03125 C-150.83747625 75.56904136 -150.83747625 75.56904136 -160 68 C-170 57.93548387 -170 57.93548387 -170 52 C-162.27230117 52.24928061 -157.24588904 54.46778449 -151 59 C-150.58258545 59.52585693 -150.1651709 60.05171387 -149.73510742 60.59350586 C-147.17909574 62.66543259 -145.3163042 62.24905027 -142.07421875 62.07421875 C-140.28854492 61.99204102 -140.28854492 61.99204102 -138.46679688 61.90820312 C-137.21962891 61.83537109 -135.97246094 61.76253906 -134.6875 61.6875 C-132.25403689 61.56380872 -129.82044038 61.44271456 -127.38671875 61.32421875 C-126.17290527 61.26024902 -124.9590918 61.1962793 -123.70849609 61.13037109 C-118.8422373 60.95929919 -113.99700043 61.08697605 -109.13208008 61.26879883 C-105.49375429 60.95655339 -103.19320208 59.71015392 -100 58 C-99.01 58 -98.02 58 -97 58 C-97 57.34 -97 56.68 -97 56 C-96.28199219 55.90203125 -95.56398438 55.8040625 -94.82421875 55.703125 C-88.77713191 54.82957323 -82.85442162 53.77446812 -76.8972168 52.42651367 C-55.49294146 47.62728211 -55.49294146 47.62728211 -45.83984375 53.61328125 C-44.05581585 54.95793073 -42.56077056 56.40731522 -41 58 C-40.69255859 56.12054688 -40.69255859 56.12054688 -40.37890625 54.203125 C-40.10685726 52.55206909 -39.83471707 50.90102821 -39.5625 49.25 C-39.36043945 48.0125 -39.36043945 48.0125 -39.15429688 46.75 C-39.02216797 45.95078125 -38.89003906 45.1515625 -38.75390625 44.328125 C-38.63345947 43.5949707 -38.5130127 42.86181641 -38.38891602 42.10644531 C-38.00808324 40.04378041 -37.53121105 38.02862484 -37 36 C-36.34 36 -35.68 36 -35 36 C-34.938125 35.030625 -34.87625 34.06125 -34.8125 33.0625 C-34.14374201 28.11774397 -31.57409304 24.18883776 -29 20 C-28.34 20 -27.68 20 -27 20 C-27 19.34 -27 18.68 -27 18 C-26.34 18 -25.68 18 -25 18 C-24.67 17.01 -24.34 16.02 -24 15 C-23.34 15 -22.68 15 -22 15 C-21.67 14.01 -21.34 13.02 -21 12 C-20.01 11.67 -19.02 11.34 -18 11 C-16.79117904 8.99983534 -16.79117904 8.99983534 -16 7 C-14.68 7 -13.36 7 -12 7 C-11.67 6.34 -11.34 5.68 -11 5 C-10.01 5.495 -10.01 5.495 -9 6 C-8.67 5.01 -8.34 4.02 -8 3 C-3.25 1.875 -3.25 1.875 -1 3 C-0.67 2.01 -0.34 1.02 0 0 Z " fill="#FCFBFB" transform="translate(220,85)"/>
<path d="M0 0 C0 3 0 3 -1.57299805 4.91357422 C-2.65641479 5.97342529 -2.65641479 5.97342529 -3.76171875 7.0546875 C-4.55126953 7.83457031 -5.34082031 8.61445313 -6.15429688 9.41796875 C-6.99025391 10.22878906 -7.82621094 11.03960937 -8.6875 11.875 C-9.50412109 12.67808594 -10.32074219 13.48117187 -11.16210938 14.30859375 C-12.73844647 15.85812673 -14.31759652 17.40480467 -15.89990234 18.94824219 C-18.28634182 21.27975083 -20.64809979 23.63372973 -23 26 C-21.70176525 22.18437605 -20.25033142 19.92909121 -17.3125 17.1875 C-14.50814263 14.49977955 -11.8859441 11.77642066 -9.375 8.8125 C-6.49816122 5.4594948 -3.48009809 2.71617412 0 0 Z " fill="#EAE8E8" transform="translate(113,285)"/>
<path d="M0 0 C0.66 0.33 1.32 0.66 2 1 C0.28971118 2.71028882 -1.42080536 4.42033687 -3.1328125 6.12890625 C-4.61892855 7.61813133 -6.09285903 9.11951413 -7.5625 10.625 C-10.26248758 13.25575713 -13.07718162 15.62096179 -16 18 C-12.48793278 10.46710816 -6.28139203 5.24512177 0 0 Z " fill="#ECEAEA" transform="translate(318,149)"/>
<path d="M0 0 C0 3 0 3 -2.375 5.6875 C-5 8 -5 8 -7 8 C-5.61918777 3.8575633 -3.40174442 2.67796901 0 0 Z " fill="#DFDFDE" transform="translate(113,285)"/>
</svg>
