<?xml version="1.0" standalone="no"?>
<!DOCTYPE svg PUBLIC "-//W3C//DTD SVG 20010904//EN"
 "http://www.w3.org/TR/2001/REC-SVG-20010904/DTD/svg10.dtd">
<svg version="1.0" xmlns="http://www.w3.org/2000/svg"
 width="300.000000pt" height="300.000000pt" viewBox="0 0 300.000000 300.000000"
 preserveAspectRatio="xMidYMid meet">
<metadata>
Created by potrace 1.10, written by Peter Selinger 2001-2011
</metadata>
<g transform="translate(0.000000,300.000000) scale(0.100000,-0.100000)"
fill="#000000" stroke="none">
<path d="M1255 2488 c-56 -29 -82 -51 -115 -96 -29 -40 -75 -125 -70 -130 3
-3 -10 -72 -14 -72 -2 0 -17 7 -32 15 -16 8 -40 15 -54 15 -39 0 -232 -41
-261 -56 -15 -7 -71 -13 -145 -15 -114 -2 -122 -1 -165 24 -51 30 -90 34 -109
12 -15 -19 -5 -50 33 -99 57 -72 100 -78 385 -56 85 6 169 18 189 26 42 18 50
13 86 -53 l26 -48 -83 0 c-70 0 -89 -4 -135 -27 -29 -16 -58 -28 -64 -28 -7 0
-41 -14 -77 -31 -36 -17 -108 -45 -160 -62 -79 -25 -109 -29 -180 -28 -79 2
-87 1 -108 -22 -19 -20 -21 -29 -14 -44 41 -76 175 -89 334 -34 29 10 67 23
83 29 17 6 55 16 85 23 30 6 60 16 67 21 7 5 36 16 65 23 29 7 62 16 73 20 15
5 33 -5 68 -35 52 -46 56 -56 28 -65 -24 -7 -106 -91 -140 -143 -86 -133 -323
-395 -383 -425 -21 -10 -53 -36 -73 -58 -54 -60 -44 -109 22 -109 48 0 93 22
144 68 24 22 69 60 99 84 30 24 70 64 88 88 19 25 59 72 90 105 32 33 71 78
87 100 17 21 51 60 77 85 46 44 47 45 69 27 12 -9 42 -22 66 -29 l44 -11 -3
-101 c-3 -83 -9 -116 -35 -186 -18 -47 -39 -118 -47 -159 -9 -41 -26 -91 -39
-110 -48 -76 -61 -130 -73 -307 -6 -75 -4 -83 18 -109 19 -21 29 -26 46 -20
30 9 69 70 78 120 3 22 9 45 13 50 3 6 4 19 3 31 -2 12 6 36 17 55 11 19 26
73 35 120 9 54 27 113 49 155 18 38 51 116 71 174 21 58 41 112 44 120 3 8 5
18 4 22 -1 3 5 12 13 18 13 11 15 5 15 -37 0 -127 145 -273 296 -298 35 -5 45
-2 70 18 22 19 34 23 47 16 42 -24 124 62 172 179 29 72 34 179 11 225 -15 27
-15 27 19 27 27 0 50 -12 102 -55 38 -30 79 -71 93 -92 14 -21 63 -79 110
-129 47 -50 108 -119 135 -153 28 -35 68 -76 90 -91 22 -15 56 -45 75 -65 38
-40 98 -75 128 -75 30 0 55 35 48 66 -8 30 -63 114 -74 114 -13 0 -84 71 -129
128 -22 29 -64 73 -93 99 -28 25 -75 80 -103 122 -64 96 -221 267 -267 291
-19 11 -46 28 -59 38 l-24 19 48 44 c26 24 51 46 56 47 19 7 106 -60 154 -119
28 -34 69 -74 92 -91 24 -16 43 -34 43 -41 1 -24 96 -113 182 -171 120 -80
198 -88 198 -20 0 29 -63 95 -118 123 -22 11 -56 42 -76 69 -20 27 -56 66 -80
85 -24 20 -65 70 -91 112 -26 41 -54 75 -61 75 -7 0 -32 22 -56 49 -68 77
-108 96 -203 96 -92 0 -132 -18 -222 -99 -28 -25 -54 -46 -58 -46 -11 0 187
205 201 208 7 2 62 -11 123 -28 140 -40 158 -40 213 -2 52 36 78 71 78 105 0
51 -51 59 -111 16 -24 -17 -33 -18 -76 -8 -26 6 -68 20 -92 30 -23 11 -71 29
-104 41 l-61 21 -55 -29 c-30 -15 -81 -53 -113 -82 l-58 -54 26 68 c15 38 31
85 36 104 13 45 22 50 86 50 69 0 87 11 117 70 30 59 31 81 7 103 -25 23 -34
22 -67 -13 -28 -29 -30 -30 -109 -24 -71 5 -85 3 -114 -15 -18 -12 -42 -38
-54 -57 -21 -36 -22 -36 -37 -16 -9 11 -34 42 -55 70 -97 125 -261 178 -371
120z m177 -12 c14 -1 24 -4 22 -8 -6 -10 34 -20 47 -12 7 4 9 3 6 -3 -4 -6 15
-28 42 -49 27 -21 64 -61 82 -89 19 -27 37 -52 42 -53 4 -2 5 -7 3 -11 -3 -4
1 -25 8 -46 l14 -39 11 55 c8 36 23 68 45 94 l34 40 95 0 c91 0 97 1 124 28
16 15 32 27 36 27 24 0 -15 -102 -46 -122 -6 -4 -36 -6 -67 -6 -79 1 -100 -7
-100 -41 0 -35 -11 -67 -71 -212 -27 -65 -49 -122 -49 -128 0 -24 21 -8 61 47
60 82 106 129 170 171 57 39 89 44 134 22 71 -34 140 -61 155 -61 10 0 35 -6
57 -14 37 -13 40 -12 66 10 29 25 73 41 84 30 12 -12 -22 -59 -65 -88 -51 -35
-65 -34 -203 7 -115 35 -157 38 -165 13 -3 -11 -50 -66 -105 -123 -54 -56 -99
-108 -99 -114 0 -6 12 -16 26 -21 24 -9 32 -6 75 35 106 99 189 129 290 105
45 -11 63 -24 141 -104 50 -50 98 -107 109 -127 10 -20 43 -58 74 -84 30 -26
71 -70 91 -97 23 -31 53 -57 80 -70 43 -20 104 -78 104 -100 0 -19 -80 -1
-122 29 -22 15 -56 37 -74 49 -45 27 -88 69 -130 125 -18 25 -50 58 -71 72
-21 15 -58 52 -83 83 -40 50 -145 134 -167 134 -5 0 -29 -20 -53 -45 -52 -53
-117 -90 -177 -100 -27 -4 -43 -12 -43 -21 0 -11 6 -11 27 -3 51 19 121 13
156 -14 18 -13 42 -27 53 -31 12 -4 43 -30 69 -59 26 -29 71 -77 100 -107 28
-30 75 -90 103 -132 28 -43 67 -92 88 -110 62 -54 94 -90 130 -145 19 -29 39
-53 45 -53 21 0 87 -60 103 -94 47 -99 -25 -85 -144 28 -36 34 -74 69 -85 77
-11 7 -41 39 -65 69 -25 30 -75 87 -111 126 -36 39 -85 96 -108 127 -24 31
-75 82 -114 114 -69 55 -75 58 -139 63 -38 3 -68 4 -68 3 0 -1 15 -25 33 -54
28 -45 32 -60 31 -113 -4 -130 -106 -297 -168 -273 -22 9 -20 53 9 182 l25
110 -50 50 -50 50 0 -33 c0 -45 -32 -74 -78 -71 -84 5 -90 2 -97 -41 -7 -40
-7 -41 83 -128 82 -80 116 -131 98 -149 -27 -27 -174 28 -244 92 -68 61 -101
160 -72 215 8 15 3 20 -35 32 l-45 15 -6 -36 c-9 -54 -70 -222 -120 -328 -28
-62 -49 -124 -58 -180 -9 -46 -24 -99 -35 -116 -10 -18 -22 -59 -26 -92 -12
-102 -55 -166 -86 -128 -16 19 -15 126 1 168 5 14 10 45 10 68 0 29 12 66 41
121 22 44 47 110 55 147 7 36 29 112 49 167 32 92 35 111 35 212 l0 110 -34 0
c-45 0 -75 12 -110 44 -15 15 -29 26 -30 24 0 -2 -7 -13 -14 -26 -7 -13 -10
-27 -7 -33 4 -5 3 -8 -2 -7 -13 5 -83 -53 -98 -81 -7 -14 -43 -55 -79 -91 -36
-36 -77 -84 -91 -106 -13 -23 -38 -54 -55 -68 -17 -14 -29 -30 -25 -36 3 -5 0
-7 -7 -5 -7 3 -45 -22 -83 -56 -38 -34 -84 -68 -102 -75 -38 -16 -79 -18 -88
-5 -8 15 51 77 93 98 39 19 220 201 262 263 13 19 45 60 71 91 27 31 65 81 86
112 39 58 111 119 151 129 20 6 111 -11 156 -28 13 -5 17 -3 14 6 -2 7 -28 19
-57 27 -85 21 -137 48 -189 97 -55 51 -58 52 -98 31 -16 -8 -40 -15 -54 -15
-14 0 -39 -9 -56 -19 -18 -11 -54 -23 -80 -26 -27 -4 -76 -19 -109 -32 -33
-14 -73 -28 -90 -30 -16 -3 -37 -9 -46 -13 -8 -5 -54 -8 -102 -7 -74 2 -90 5
-108 23 -12 12 -18 27 -15 33 9 13 89 14 133 2 18 -5 35 -6 38 -1 3 4 16 11
29 14 14 3 38 11 53 17 15 6 42 13 58 15 17 1 63 19 102 39 39 20 83 38 97 41
14 2 46 15 71 29 83 44 179 42 275 -4 22 -11 40 -16 40 -13 0 4 -17 25 -38 47
-21 22 -54 69 -73 105 l-34 65 -45 -2 c-25 -1 -46 -7 -48 -13 -2 -5 -7 -8 -10
-6 -4 2 -72 -2 -152 -10 -280 -26 -325 -19 -380 61 -17 25 -30 48 -28 50 9 10
77 -17 101 -39 25 -23 30 -24 149 -19 68 2 141 10 163 18 68 24 248 57 274 50
15 -3 42 -19 63 -35 l36 -29 1 42 c0 60 6 86 31 141 35 77 126 165 163 158 4
-1 7 2 7 8 0 5 7 7 15 4 8 -4 15 -2 15 3 0 5 19 7 43 5 23 -3 54 -5 69 -6z
m362 -1099 c7 -11 5 -41 -7 -104 -10 -48 -20 -100 -23 -115 -5 -26 -8 -25 -90
58 -104 102 -106 117 -15 124 53 4 66 9 85 32 23 29 34 30 50 5z m846 -327 c0
-5 -5 -10 -11 -10 -5 0 -7 5 -4 10 3 6 8 10 11 10 2 0 4 -4 4 -10z"/>
</g>
</svg>
